<?xml version="1.0" encoding="utf-8"?>
<!-- Generator: Adobe Illustrator 21.0.0, SVG Export Plug-In . SVG Version: 6.00 Build 0)  -->
<svg version="1.1" id="Layer_1" xmlns="http://www.w3.org/2000/svg" xmlns:xlink="http://www.w3.org/1999/xlink" x="0px" y="0px"
	 viewBox="0 0 800 800" style="enable-background:new 0 0 800 800;" xml:space="preserve">
<g>
	<polygon points="15.2,26.2 7.5,26.2 3.8,26.2 3.8,30 3.8,33.6 3.8,37.4 3.8,41.1 3.8,44.9 3.8,48.7 3.8,52.4 3.8,56.1 3.8,59.7 
		3.8,63.5 3.8,67.2 3.8,71 3.8,74.8 7.5,74.8 7.5,78.4 7.5,82.2 7.5,85.9 7.5,89.5 7.5,93.3 7.5,97.1 7.5,100.7 3.8,100.7 0,100.7 
		0,104.5 3.8,104.5 7.5,104.5 11.3,104.5 11.3,100.7 11.3,97.1 11.3,93.3 11.3,89.5 11.3,85.9 11.3,82.2 11.3,78.4 11.3,74.8 
		14.9,74.8 18.7,74.8 18.7,78.4 18.7,82.2 18.7,85.9 18.7,89.5 18.7,93.3 18.7,97.1 18.7,100.7 18.7,104.5 22.5,104.5 26.2,104.5 
		30,104.5 30,100.7 26.2,100.7 22.5,100.7 22.5,97.1 22.5,93.3 22.5,89.5 22.5,85.9 22.5,82.2 22.5,78.4 22.5,74.8 26.2,74.8 
		26.2,71 26.2,67.2 26.2,63.5 26.2,59.7 26.2,56.1 26.2,52.4 26.2,48.7 26.2,44.9 26.2,41.1 26.2,37.4 26.2,33.6 26.2,30 26.2,26.2 
		22.5,26.2 15.2,26.2 15.2,22.6 22.5,22.6 22.5,18.8 22.5,15.1 22.5,11.3 22.5,7.7 22.5,3.9 22.5,0.1 18.7,0.1 14.9,0.1 11.3,0.1 
		7.5,0.1 7.5,3.9 7.5,7.7 7.5,11.3 7.5,15.1 7.5,18.8 7.5,22.6 15.2,22.6 	"/>
</g>
</svg>
